<svg width="248.33" height="696.81" viewBox="-88 111 248.33 696.81" fill="none" xmlns="http://www.w3.org/2000/svg"><defs><clipPath id="c"><rect width="248.33" height="696.81" transform="translate(-88 111)"/></clipPath></defs><g clip-path="url(#c)">
<path opacity="0.5" d="M102.41 111.01C99.8303 111.18 97.2603 111.35 94.6803 111.51L71.5303 113.07L71.4303 113.08C62.6803 113.76 53.9503 114.59 45.2703 115.79C20.8403 119.17 8.42027 134.63 8.28027 159.34C8.09027 192.16 7.41027 225.03 8.80027 257.8C9.72027 279.39 3.22027 293.76 -15.7097 306.1C-47.7697 326.98 -48.6197 380.53 -19.0397 404.54C-7.38973 413.99 4.88027 422.74 17.3703 431.06C35.0503 442.83 43.8703 458.33 42.3203 479.95C41.1803 495.97 40.6503 512.01 41.3403 528.05C41.5403 532.82 41.6603 538.16 42.3503 543.2C43.0903 548.59 44.4903 553.63 47.3603 557.26C49.6503 560.14 51.5303 563.08 53.0803 566.07C53.0803 566.07 53.0803 566.07 53.0903 566.08C53.3503 566.35 62.5503 576.24 60.6003 604.59V604.66C60.6403 606.62 60.6803 608.59 60.7203 610.56C60.7303 611.25 60.7403 611.93 60.7403 612.6C60.9703 639.41 54.5203 649.58 28.5303 660.26C12.0903 667.01 -5.95974 670.61 -21.1897 679.3C-32.8897 685.98 -44.3097 696.88 -50.2997 708.72C-54.4497 716.91 -56.3597 727.76 -51.1097 737.07C-48.4697 741.74 -41.3297 740.28 -40.8397 734.93C-40.7197 733.63 -40.7297 732.35 -40.8797 731.09C-43.5897 708.45 -32.4197 695.41 -12.2297 688.29C2.45026 683.12 17.1603 678.06 31.8303 672.89C63.4203 661.74 74.1303 646.57 74.0503 613.18C74.0203 604.75 74.0403 596.31 74.0403 587.67C74.0403 586.4 75.2403 585.47 76.4703 585.78C95.3603 590.54 103.51 597.39 107.2 610.56C117.45 647.2 100.34 679.06 64.4603 691C51.8403 695.2 39.0603 699.47 27.2803 705.52C11.8203 713.45 1.40027 739.59 9.39027 754.52C11.6403 758.72 15.9803 761.8 20.7803 764.62V764.63C20.8203 764.65 20.8603 764.67 20.9003 764.69C26.0603 767.54 30.9703 767.82 35.4803 766.55C45.6703 763.7 53.8003 753 58.0403 746.26C58.0403 746.26 58.1703 746.02 58.4503 745.61C59.9203 743.45 65.3403 736.56 76.0703 734.9C76.0803 734.89 76.1003 734.89 76.1103 734.89C78.0003 734.71 79.9803 734.65 82.0503 734.69C91.4803 734.9 100.95 734.85 110.35 734.16C111.47 734.07 112.55 733.4 113.61 732.54C116.15 730.47 116.5 726.58 114.17 724.28C113.82 723.94 113.45 723.67 113.04 723.5C91.5502 714.77 65.4603 722.58 50.2603 739.94H50.2503C26.1703 764.42 20.7803 744.66 20.7803 744.66H20.7703C19.4803 733.48 24.9703 723.06 37.2203 716.13C49.1503 709.37 62.9103 705.86 75.8003 700.78C105.88 688.94 118.56 669.52 118.91 634.92C119.34 593.39 114.81 585.93 79.2903 571.29C62.5603 564.39 53.7703 552.91 54.2903 534.17C54.8503 513.61 53.8503 493 54.3603 472.43C54.8603 452.19 46.3403 437.11 30.3203 425.63C19.0203 417.54 7.30027 409.97 -3.56973 401.33C-36.8997 374.84 -35.8197 334.85 -1.00974 311.03C14.0103 300.76 21.7403 287.76 21.4303 269.17C20.8103 233.01 21.0303 196.84 21.1303 160.67C21.1903 139.91 30.0503 129.93 50.6203 127.63C58.3603 126.76 66.1903 126.46 73.9703 125.92L103.4 124.03C106.55 123.82 108.95 121.2 108.95 118.12C108.95 117.9 108.94 117.68 108.91 117.45L108.78 116.31C108.42 113.12 105.61 110.8 102.41 111.01ZM40.8803 755.25L40.0303 755.91L40.4803 754.86C40.6903 754.8 40.9003 754.74 41.1103 754.68C41.0303 754.87 40.9503 755.06 40.8803 755.25Z" fill="#F2F2F2"/>
<path opacity="0.5" d="M94.6803 111.51L71.5303 113.07C79.2403 112.48 86.9603 112 94.6803 111.51Z" fill="#F2F2F2"/>
<path opacity="0.5" d="M32.3197 580.45C33.9297 580.36 35.4197 581.2 36.1597 582.5V582.51C36.4597 583.34 36.5297 584.15 36.4197 584.93C35.8797 588.88 30.7997 592.09 27.1997 593.9C24.2497 595.38 21.7797 597.62 20.0097 600.4C17.6397 604.12 15.7697 608.14 14.2497 612.44C14.2497 612.45 14.2397 612.47 14.2397 612.48C13.4397 614.74 12.7397 617.06 12.1197 619.45C12.1197 619.45 12.1197 619.45 12.1197 619.46C10.1497 624.84 7.81967 628.82 5.46967 631.78C4.08968 633.52 2.37968 634.96 0.469673 636.09C-0.600327 636.72 -1.66032 637.31 -2.64033 637.85C-4.27032 638.74 -5.97033 639.51 -7.72033 640.19C-12.1503 641.92 -16.8803 643.1 -21.5003 644.25C-68.3803 655.93 -76.3403 666.23 -75.6703 714.99C-75.0903 756.37 -74.9303 755.68 -35.4403 764.92C-22.7803 767.88 -10.3403 774.18 0.66967 781.33C22.4997 795.5 42.9397 796.54 66.4497 784.2C74.8997 779.77 85.1197 778.42 95.3397 777.55C95.8797 777.5 96.4097 777.46 96.9597 777.41C97.0797 777.41 97.1997 777.4 97.3197 777.4H110.76C113.91 777.4 116.67 779.98 116.51 783.12C116.44 784.52 115.85 785.78 114.92 786.7C113.94 787.69 112.58 788.3 111.07 788.3H105.62C105.5 788.29 105.38 788.29 105.27 788.28C101.9 787.99 98.6197 788 95.3897 788.3H95.3397C84.6697 789.29 74.6397 793.38 64.6897 799.9C46.8097 811.62 27.0597 809.4 9.08967 799.28C-13.7903 786.38 -36.4503 774.2 -63.3903 771.53C-76.7503 770.21 -85.1703 761.56 -85.6403 746.8C-86.2203 729.09 -88.0403 711.4 -88.0003 693.71C-87.9403 665.16 -72.7103 646.92 -46.4203 637.56C-37.0403 634.21 -27.3603 631.45 -17.6203 629.39C-4.58033 626.65 2.47967 620.2 3.91967 606.04C5.56967 589.91 15.9597 581.38 32.3197 580.45Z" fill="#F2F2F2"/>
<path opacity="0.5" d="M116.33 256.83C117.13 258.04 117.52 259.11 117.62 260.05C118.21 265.11 110.47 266.57 110.47 266.57C108.31 266.88 106.44 267.2 104.8 267.56C93.8 270 93.67 274.43 93.13 293.11C92.68 308.44 90.1 323.73 88.22 339.01C86.24 355.16 94.33 364.9 107.51 372.63C107.55 372.66 107.6 372.68 107.65 372.71C113.7 376.37 109.03 385.65 102.41 383.16C82.37 375.64 73.21 360.05 74.02 336.42C74.66 318.13 76.1 299.82 78.12 281.63C80.03 264.43 89.24 254.5 103.49 253.74V253.73C113.21 252.32 116.33 256.83 116.33 256.83Z" fill="#F2F2F2"/>
<path opacity="0.5" d="M72.6304 193.93C52.5404 194.3 42.0504 187.3 40.6904 173.05C39.0604 155.85 46.5204 147.17 68.0204 145.79C94.4904 144.09 121.12 144.43 147.69 143.8C149.52 143.76 151.41 143.8 153.31 143.83C156.73 143.88 159.46 146.09 159.52 148.84C159.58 151.65 156.82 154.01 153.33 154.13C127.02 154.99 100.68 155.39 74.3604 155.61C62.1104 155.71 53.7904 158.71 53.3604 169.57C52.9004 181.16 62.4804 183.34 74.1204 183.06C100.67 182.41 127.23 181.66 153.78 180.99C157.33 180.9 160.26 183.15 160.32 186.01L160.34 186.81C160.4 189.62 157.66 191.97 154.17 192.1C127 193.08 99.8104 193.43 72.6304 193.93Z" fill="#F2F2F2"/>
<path opacity="0.5" d="M117.73 558.64C117.76 551.68 117.9 544.7 117.9 537.74V557.47C117.9 557.88 117.84 558.27 117.73 558.64Z" fill="#F2F2F2"/>
<path opacity="0.5" d="M117.8 528.68C117.77 527.34 117.72 525.99 117.67 524.64C117.82 525.9 117.9 527.23 117.9 528.63L117.8 528.68Z" fill="#F2F2F2"/>
<path opacity="0.5" d="M102.8 503.21C103.07 503.33 104.56 504.04 106.5 505.47C105.18 504.77 103.94 504.01 102.8 503.21Z" fill="#F2F2F2"/>
<path opacity="0.5" d="M99.5703 513.97C100.43 514.38 101.22 514.83 101.94 515.33C101.77 515.24 100.89 514.81 99.5703 513.97Z" fill="#F2F2F2"/>
<path opacity="0.5" d="M88.9604 469.1C88.9604 471.29 88.8804 472.62 88.8604 472.81C88.8604 471.59 88.8904 470.35 88.9604 469.1Z" fill="#F2F2F2"/>
<path opacity="0.5" d="M112.9 219.44C113.37 219.47 113.84 219.61 114.3 219.83C118.2 221.72 118.28 227.51 114.4 229.44C113.96 229.65 113.53 229.79 113.08 229.82C101.31 230.49 89.4601 229.63 77.6801 230.41C66.1701 231.16 57.2001 240.7 56.9701 252.23C56.6601 268.15 56.3801 284.16 57.5701 300.02C59.2801 322.98 51.3601 339.37 30.6501 348.44V348.45C29.6201 348.9 28.5601 349.33 27.4701 349.75C27.4601 349.75 27.4501 349.76 27.4501 349.76C25.7101 350.41 24.1801 351.55 23.0401 353.01C18.1801 359.21 18.6801 364.67 20.6801 368.78C20.7001 368.83 20.7201 368.89 20.7601 368.94C22.8401 373.48 26.4501 376.63 26.4501 376.63L34.1801 383.05C42.3901 390.85 50.4801 398.04 59.3801 404.06C59.5601 404.18 59.7401 404.31 59.9201 404.43L68.1401 411.26C89.5101 432.22 91.6201 461.17 91.6601 471.36C91.5901 472.61 91.5601 473.85 91.5601 475.07C91.5601 475.08 91.5601 475.09 91.5601 475.09C91.5401 487.56 94.8001 498.09 105.46 505.45C105.46 505.45 105.47 505.46 105.5 505.47C106.64 506.27 107.88 507.03 109.2 507.73C113.2 510.68 119.14 516.68 120.37 526.9C120.42 528.25 120.47 529.6 120.5 530.94C120.57 533.96 120.6 536.98 120.6 540C120.6 546.96 120.46 553.94 120.43 560.9C119.99 562.37 118.75 563.51 117.21 563.79C116.97 563.85 116.71 563.87 116.45 563.87C115.31 563.87 114.27 563.4 113.53 562.65C112.77 561.9 112.31 560.87 112.31 559.73V535.03C112.31 535.03 113.56 523.64 104.67 517.6C104.67 517.6 104.66 517.6 104.64 517.59C103.92 517.09 103.13 516.64 102.27 516.23C102.26 516.23 102.26 516.22 102.25 516.22C96.1201 512.33 80.5201 499.73 80.8901 472.59V472.22C81.3001 442.4 67.2001 420.32 39.7101 404.37C30.3201 398.92 22.0801 390.65 15.0001 382.25C1.54006 366.3 4.56006 346.35 23.1701 337.55C41.3901 328.93 46.3701 315.7 45.6501 297.41C45.0001 280.78 44.6601 264.03 45.8501 247.45C47.2101 228.6 57.5201 219.63 76.2301 219.11C88.4501 218.77 100.7 218.86 112.9 219.44Z" fill="#F2F2F2"/>
</g></svg>